<?xml version="1.0" encoding="utf-8"?>
<!-- Generator: Adobe Illustrator 24.0.0, SVG Export Plug-In . SVG Version: 6.00 Build 0)  -->
<svg version="1.1" id="Layer_1" xmlns="http://www.w3.org/2000/svg" xmlns:xlink="http://www.w3.org/1999/xlink" x="0px" y="0px"
	 viewBox="0 0 164 70" style="enable-background:new 0 0 164 70;" xml:space="preserve">
<style type="text/css">
	.st0{enable-background:new    ;}
	.st1{fill:#6200EE;}
</style>
<g class="st0">
	<path class="st1" d="M39.3,56h-6.5V38.2H12.1V56H5.5V14.7h6.5v17.5h20.7V14.7h6.5V56z"/>
	<path class="st1" d="M78.5,35.1V56h-6v-4.5c-2.4,3.9-6.2,5.2-9.9,5.2c-6.2,0-9.8-3.7-9.8-9.1c0-5.3,3.4-7.9,9.4-8.8l6.7-1
		c1.3-0.2,3.8-0.6,3.8-3.5c0-2.7-2.2-3.8-5.8-3.8c-4.3,0-6.7,1.9-7.2,5.1h-5.9c0.7-6.1,5.5-10.1,13.2-10.1
		C74.3,25.3,78.5,28.4,78.5,35.1z M72.6,43.3v-2.2c-1.1,0.3-1.9,0.5-4.5,0.9l-3.4,0.5c-1.5,0.2-5.7,0.9-5.7,4.8
		c0,2.6,1.8,4.1,5.1,4.1C68.7,51.4,72.6,48.3,72.6,43.3z M67.1,7.9c3.5,0,6.1,2.5,6.1,6.1c0,3.6-2.6,6.1-6.1,6.1c-3.4,0-6-2.5-6-6.1
		C61.1,10.4,63.7,7.9,67.1,7.9z M67.2,10.9c-1.9,0-3,1.4-3,3.1c0,1.8,1.1,3.2,3,3.2c1.8,0,3-1.4,3-3.2C70.2,12.3,69,10.9,67.2,10.9z
		"/>
	<path class="st1" d="M122.4,40.9c0,9.6-5.3,15.8-13.3,15.8c-5.1,0-8.5-2.4-10.1-5.5V56H93V14h6.3v17.1c1.7-3.7,5.5-5.8,10.2-5.8
		C117.3,25.3,122.4,31.5,122.4,40.9z M116.2,41.1c0-6.1-3.4-10.2-8.5-10.2c-5.1,0-8.7,4.1-8.7,10.2c0,6.1,3.5,10.2,8.7,10.2
		C112.8,51.3,116.2,47.3,116.2,41.1z"/>
	<path class="st1" d="M161.1,42.7h-22c0,5.6,3.4,8.7,8.8,8.7c3.7,0,6.3-1.6,7.4-4.3h5.5c-1.5,5.7-6.5,9.5-13.3,9.5
		c-8.6,0-14.2-6-14.2-15.5c0-9.6,5.8-15.9,14.4-15.9c8.1,0,13.4,5.7,13.4,14.8V42.7z M147.6,30.5c-4.7,0-8,2.9-8.4,7.7h15.9
		C155.2,33.5,152.3,30.5,147.6,30.5z"/>
</g>
</svg>
